<svg xmlns="http://www.w3.org/2000/svg" width="127" height="63" fill="none" viewBox="0 0 127 63"><path fill="#818181" fill-rule="evenodd" d="M25 63H97.5V56C97.8333 53.6667 99.2 48.1 102 44.5C104.8 40.9 109.5 38 111.5 37L116.5 35.5H126.5V32H116.5L111.5 33L90 4.5C89.1667 3.5 87.2 1.4 86 1C84.8 0.600005 80.1667 1.16667 78 1.5L51.5 5.5L19.5 37.5C17.6667 36.6667 13.3 34.8 10.5 34C7.7 33.2 2.33333 33 0 33V37C5.16667 36.8333 16.5 38 20.5 44C24.5 50 25.1667 59.1667 25 63ZM53 9L23.5 39L37.5 34.5L36 29.5C35.8333 29.1667 35.7 28.4 36.5 28C37.3 27.6 37.8333 27.8333 38 28L42 39.5L67.5 39C68.5 35.1667 70.6 27.2 71 26C71.4 24.8 71.5 18.8333 71.5 16C71.3333 15.1667 71.1 13.2 71.5 12C72 10.5 74 10.5 76 11C77.6 11.4 78 12.8333 78 13.5L75 39L77.5 39.5L81.5 5L53 9ZM38 37L31 39L39 39.5L38 37Z" clip-rule="evenodd"/></svg>