<svg width="56" height="56" viewBox="0 0 56 56" fill="none" xmlns="http://www.w3.org/2000/svg">
<path fill-rule="evenodd" clip-rule="evenodd" d="M32.3867 47.6933C30.8622 47.5067 30.0067 47.5844 29.4933 47.9578C28.7622 48.4711 27.4711 48.5022 26.6778 48.0044C26.0089 47.6 25.1222 47.5067 23.8311 47.6933C22.82 47.8333 22.1511 47.6467 21.5444 47.04C20.86 46.3556 20.02 45.9822 19.2422 46.0289C18.9 46.0444 18.4022 45.9822 18.1222 45.8889C17.5622 45.7022 16.6444 44.7845 16.6444 44.4111C16.6444 44.1156 15.5556 43.2444 15.1667 43.2444C14.6067 43.2289 13.5956 42.6689 13.2378 42.1711C13.0511 41.9067 12.8489 41.4244 12.8022 41.1133C12.6778 40.2422 12.18 39.6045 11.34 39.2311C10.3289 38.7645 9.90889 38.0644 9.92444 36.8978C9.94 35.7311 9.73777 35.1244 9.16222 34.7044C8.15111 33.9578 7.84 32.8067 8.32222 31.6244C8.63333 30.8933 8.61777 30.4578 8.26 30.0067C7.29555 28.7622 7.23333 27.8133 8.01111 26.6C8.61777 25.6511 8.66444 25.3244 8.32222 24.5311C7.84 23.38 8.10444 22.3378 9.06889 21.5133C9.76889 20.9378 9.98666 20.4867 9.94 19.7089C9.92444 19.3511 9.92444 18.8689 9.94 18.6356C9.95555 18.0756 10.9044 17.0333 11.5578 16.8156C12.1489 16.6133 12.6933 15.8511 12.8022 15.0422C12.9733 13.9689 13.7044 13.2378 14.9333 12.9889C15.6644 12.8333 16.4267 12.2422 16.7378 11.5733C17.1733 10.6711 17.9356 10.1889 19.04 10.1578C20.2067 10.1111 20.9222 9.83112 21.6067 9.11556C22.1978 8.49334 22.8667 8.30667 23.8467 8.47778C25.0133 8.68 25.9778 8.57112 26.7089 8.13556C27.2689 7.80889 27.5333 7.74667 28.2178 7.80889C28.7156 7.85556 29.2289 8.01112 29.5089 8.21334C30.0067 8.55556 30.8622 8.63334 32.5889 8.46223C33.46 8.38445 33.5689 8.41556 34.1911 8.85112C34.5489 9.11556 34.8444 9.39556 34.8444 9.47334C34.8444 9.72223 36.1356 10.1267 37.0378 10.1578C38.0489 10.1889 38.6244 10.5156 39.1222 11.3556C39.6356 12.2111 40.4289 12.88 41.0667 12.9889C42.2489 13.1911 43.2444 14.1711 43.2444 15.1667C43.26 15.7733 43.9133 16.5511 44.8 16.9867C45.7333 17.4689 46.2622 18.4178 46.1378 19.4756C46.0444 20.3778 46.2933 21.0467 46.8378 21.3733C47.8022 21.9489 48.2222 23.52 47.6778 24.5778C47.4133 25.1067 47.5067 25.9 47.9111 26.3667C48.3778 26.8956 48.5333 27.3311 48.5333 28.0778C48.5333 28.8244 48.3778 29.26 47.9111 29.7889C47.5067 30.2556 47.4133 31.0489 47.6778 31.5778C48.2222 32.6356 47.8022 34.2067 46.8378 34.7822C46.2778 35.1089 46.0444 35.7622 46.1378 36.7578C46.2467 37.8467 45.78 38.6556 44.7378 39.2156C43.82 39.7133 43.26 40.3822 43.2444 40.9578C43.2444 41.9533 42.28 42.98 41.1911 43.1667C40.32 43.3222 39.7289 43.7733 39.2467 44.6756C38.7644 45.5778 37.8622 46.0756 36.8356 46.0289C36.0111 45.9978 35.0778 46.3867 34.5956 46.9622C34.0511 47.6156 33.4444 47.8178 32.3867 47.6933ZM26.3044 41.0667C23.2711 40.6467 20.5489 39.2311 18.4178 36.9755C11.7755 30.0067 14.7311 18.7289 23.9867 15.6489C30.0378 13.6267 36.9444 16.5045 39.8222 22.26C41.4711 25.5422 41.6578 29.4778 40.3355 32.8222C38.7333 36.8355 35.2022 39.8533 30.9867 40.8178C29.5867 41.1289 27.5644 41.2378 26.3044 41.0667ZM30.8622 38.9511C34.6267 37.9711 37.52 35.28 38.8267 31.5C39.2311 30.3644 39.2622 30.0533 39.2622 28.0778C39.2622 26.1022 39.2311 25.7911 38.8422 24.6556C37.0378 19.4911 32.0133 16.2867 26.6933 16.9556C23.9867 17.2822 21.98 18.2933 19.9889 20.2845C18.8533 21.42 18.4489 21.9489 17.92 23.0222C17.5622 23.7533 17.1578 24.7956 17.0022 25.3556C16.6444 26.7244 16.6444 29.4311 17.0022 30.8C18.1689 35.1556 21.8711 38.5 26.32 39.1844C27.5489 39.3711 29.6333 39.2622 30.8622 38.9511ZM20.6733 29.6956C21.3111 32.6511 23.8778 35.0156 26.9267 35.4667C28.4822 35.6844 30.6756 35.2489 31.9511 34.4867C32.9778 33.8489 34.2067 32.5111 34.7511 31.4067C36.4933 27.9378 35.3422 23.94 32.0133 21.7778C30.7067 20.9222 29.4467 20.6267 27.5489 20.72C26.18 20.7822 25.8689 20.86 24.8111 21.3578C23.2244 22.12 21.9644 23.3644 21.2178 24.9667C20.7355 25.9622 20.6422 26.3511 20.5644 27.5022C20.5333 28.2644 20.58 29.2289 20.6733 29.6956ZM28.42 32.5111C29.0267 32.8533 29.2133 33.46 28.8711 33.9733C28.56 34.4556 27.7044 34.5333 27.3 34.1289C26.8956 33.7244 27.0511 32.8067 27.58 32.5111C27.9533 32.3089 28.0467 32.3089 28.42 32.5111ZM24.2822 30.8C25.06 30.8 25.4956 32.0444 24.92 32.5578C24.2511 33.1644 23.1778 32.6822 23.1778 31.7956C23.1778 31.4067 23.8467 30.8 24.2822 30.8ZM32.48 31.0489C32.9156 31.3444 32.9467 32.2 32.5422 32.5578C32.1222 32.9467 31.3289 32.9 31.0489 32.48C30.6911 31.9667 30.7533 31.4844 31.2045 31.1267C31.7022 30.7378 32.0133 30.7222 32.48 31.0489ZM30.4111 28.3889C30.3022 29.1667 29.6645 29.9911 28.9956 30.2711C28.2956 30.5667 27.7356 30.5356 26.9733 30.1933C25.2467 29.4156 25.2156 26.9267 26.9111 26.0244C27.7511 25.5733 28.2178 25.5733 29.0889 26.0244C29.9911 26.4756 30.5511 27.4711 30.4111 28.3889ZM23.6444 28.0778C23.6444 28.2956 23.5044 28.6067 23.3333 28.7778C23.1622 28.9489 22.8511 29.0889 22.6333 29.0889C22.4156 29.0889 22.1044 28.9489 21.9333 28.7778C21.7622 28.6067 21.6222 28.2956 21.6222 28.0778C21.6222 27.86 21.7622 27.5489 21.9333 27.3778C22.1044 27.2067 22.4156 27.0667 22.6333 27.0667C22.8511 27.0667 23.1622 27.2067 23.3333 27.3778C23.5044 27.5489 23.6444 27.86 23.6444 28.0778ZM33.4756 27.0667C34.2845 27.0667 34.7045 28.1556 34.1445 28.7778C33.5689 29.4156 32.3556 28.9489 32.3556 28.1089C32.3556 27.6422 32.9622 27.0667 33.4756 27.0667ZM24.9356 23.6133C25.3244 24.0333 25.2778 24.8267 24.8578 25.1067C24.3911 25.4489 23.9244 25.4178 23.52 25.0444C23.1156 24.6711 23.0844 24.1578 23.4267 23.6756C23.7222 23.24 24.5778 23.2089 24.9356 23.6133ZM32.5578 23.6133C32.9467 24.0333 32.9 24.8267 32.48 25.1067C31.9822 25.4489 31.5311 25.4178 31.1422 24.9978C30.7378 24.5778 30.7067 24.1578 31.0489 23.6756C31.3445 23.24 32.2 23.2089 32.5578 23.6133ZM29.0889 22.7111C29.0889 22.8978 28.9178 23.2089 28.7 23.4111C28.2645 23.8622 27.9067 23.8933 27.4089 23.5511C27.0044 23.2711 26.9422 22.4 27.3156 22.0267C27.86 21.4667 29.0889 21.9489 29.0889 22.7111Z" fill="#818181"/>
</svg>
